<svg width="356" height="47" viewBox="0 0 356 47" fill="none" xmlns="http://www.w3.org/2000/svg">
<path d="M8.842 27.296C13.6873 26.9587 18.1033 25.8087 22.09 23.846L23.884 29.09C18.8547 32.1873 13.0433 33.9813 6.45 34.472L0.608 29.044C1.988 23.0333 4.44133 17.59 7.968 12.714C11.9853 7.22467 16.8613 3.26867 22.596 0.845997L31.336 7.148C30.5387 9.75467 29.0973 12.7753 27.012 16.21C26.4293 17.1607 25.8773 18.004 25.356 18.74L20.02 15.796C22.1053 12.208 23.5007 9.18733 24.206 6.734C20.3727 8.63533 16.984 11.5487 14.04 15.474C11.2187 19.3073 9.486 23.248 8.842 27.296ZM47.5923 27.802C44.6483 31.206 40.769 33.3527 35.9543 34.242L29.4223 28.768C29.4223 25.824 30.005 22.9107 31.1703 20.028C32.6423 16.4093 35.065 13.4807 38.4383 11.242C40.769 9.678 43.299 8.712 46.0283 8.344L53.3423 14.6C52.821 17.912 51.9317 20.7947 50.6743 23.248C52.8823 23.1253 55.3817 22.8187 58.1723 22.328L59.1843 26.974C55.1977 28.63 52.0697 29.7493 49.8003 30.332L47.5923 27.802ZM35.5863 27.986C39.0823 27.1887 41.9957 25.0267 44.3263 21.5C45.3077 19.9973 46.013 18.556 46.4423 17.176C46.8717 15.796 47.1017 14.692 47.1323 13.864C44.6483 14.2013 42.287 15.52 40.0483 17.82C37.2577 20.672 35.7703 24.0607 35.5863 27.986ZM80.9855 17.406C83.4695 15.4127 86.2295 13.6033 89.2655 11.978L94.8315 16.348C93.8501 20.4267 92.2248 23.938 89.9555 26.882C92.9301 25.87 96.3955 24.352 100.351 22.328L101.317 26.974C100.06 27.802 98.1435 28.86 95.5675 30.148C91.1515 32.3253 88.1001 33.69 86.4135 34.242L80.7095 30.194C84.5121 25.6247 86.7508 21.914 87.4255 19.062C84.2055 20.626 81.1695 22.4353 78.3175 24.49C76.8148 27.8633 74.9595 31.114 72.7515 34.242L67.4615 30.608C68.9335 28.6453 70.1755 26.744 71.1875 24.904C72.8128 21.8987 73.8095 19.5373 74.1775 17.82C71.2335 19.2 68.5195 20.764 66.0355 22.512C65.1768 23.0947 64.2721 23.7233 63.3215 24.398C61.9415 27.6487 60.7301 30.93 59.6875 34.242L54.2135 30.7C55.2561 27.1733 56.8815 23.202 59.0895 18.786C61.0828 14.83 63.1681 11.4873 65.3455 8.758L69.9915 12.116C68.8875 13.6187 67.9061 15.1673 67.0475 16.762C69.8381 14.462 72.8281 12.4533 76.0175 10.736L81.5835 15.106L80.9855 17.406ZM109.275 16.256C111.299 14.4467 113.982 12.6067 117.325 10.736L122.891 15.106C122.646 17.5593 122.247 19.6753 121.695 21.454C121.143 23.2327 120.238 24.766 118.981 26.054C122.293 24.9807 125.436 23.7387 128.411 22.328L129.377 26.974C125.482 29.1513 120.054 31.0987 113.093 32.816C110.946 33.368 108.784 33.8433 106.607 34.242L102.329 30.332C99.6918 36.2813 97.7291 41.5253 96.4411 46.064L91.1971 42.522C94.9691 31.1753 100.259 19.7673 107.067 8.298L111.713 11.702L109.275 16.256ZM102.881 29.09C106.193 28.5687 108.616 28.0013 110.149 27.388C112.357 26.3453 114.105 24.1373 115.393 20.764C115.822 19.7213 116.114 18.648 116.267 17.544C113.139 19.2 110.272 20.9787 107.665 22.88C106.776 23.524 105.825 24.2293 104.813 24.996L102.881 29.09ZM140.709 30.102C138.287 32.0033 135.496 33.3833 132.337 34.242L126.633 28.952C126.633 26.5293 127.001 24.1527 127.737 21.822C128.473 19.4913 129.562 17.3907 131.003 15.52C132.445 13.6493 134.223 12.1007 136.339 10.874C138.486 9.61667 140.955 8.86533 143.745 8.62L146.781 13.266C147.149 12.6833 147.931 11.6713 149.127 10.23L153.635 14.094C150.599 18.05 148.085 22.282 146.091 26.79L145.953 26.882C147.732 26.422 149.817 25.64 152.209 24.536C154.601 23.4013 156.119 22.6653 156.763 22.328L157.775 26.974C155.966 28.2927 152.961 29.9947 148.759 32.08C147.103 32.908 145.601 33.5673 144.251 34.058L140.709 30.102ZM133.073 27.618C136.355 26.7287 139.345 24.5513 142.043 21.086C142.841 19.338 143.439 17.1607 143.837 14.554C140.679 14.8607 138.087 16.256 136.063 18.74C134.07 21.1933 133.073 24.1527 133.073 27.618ZM165.513 16.992C168.58 14.5693 171.754 12.484 175.035 10.736L180.601 15.106C179.589 19.4607 177.81 23.386 175.265 26.882C178.332 25.8393 181.812 24.3213 185.707 22.328L186.673 26.974C185.416 27.802 183.499 28.86 180.923 30.148C176.507 32.3253 173.456 33.69 171.769 34.242L166.065 30.194C167.905 27.986 169.438 25.8087 170.665 23.662C171.922 21.4847 172.735 19.5833 173.103 17.958C169.178 19.798 165.436 21.9447 161.879 24.398C160.468 27.7713 159.272 31.0527 158.291 34.242L152.817 30.7C153.86 27.1733 155.485 23.202 157.693 18.786C159.686 14.83 161.772 11.4873 163.949 8.758L168.595 12.116C167.522 13.5573 166.494 15.1827 165.513 16.992ZM203.137 26.238C208.105 24.7967 211.585 23.4933 213.579 22.328L214.591 26.974C212.137 28.814 209.393 30.4853 206.357 31.988C205.283 32.54 204.348 32.954 203.551 33.23L201.297 30.746C200.438 34.6407 199.426 37.7533 198.261 40.084C197.157 42.2307 195.593 44.3773 193.569 46.524C190.195 46.432 186.5 45.8953 182.483 44.914C181.225 44.6073 180.075 44.27 179.033 43.902L178.757 36.312C180.811 34.5027 183.096 32.9693 185.611 31.712L182.943 29.78C183.219 25.732 185.319 20.5187 189.245 14.14C190.471 12.1467 191.821 10.1533 193.293 8.16L198.077 11.794C192.71 19.338 189.812 24.8887 189.383 28.446C191.008 28.2007 192.311 27.8173 193.293 27.296C195.255 26.2533 196.819 24.7353 197.985 22.742C200.622 17.4673 202.983 13.358 205.069 10.414L209.945 14.232C206.939 18.832 204.67 22.834 203.137 26.238ZM183.403 39.67C186.224 40.314 188.555 40.6667 190.395 40.728C192.388 39.0413 193.952 36.3887 195.087 32.77C190.088 34.794 186.193 37.094 183.403 39.67ZM239.005 16.992C242.072 14.5693 245.246 12.484 248.527 10.736L254.093 15.106C253.081 19.4607 251.302 23.386 248.757 26.882C251.824 25.8393 255.304 24.3213 259.199 22.328L260.165 26.974C258.908 27.802 256.991 28.86 254.415 30.148C249.999 32.3253 246.948 33.69 245.261 34.242L239.557 30.194C241.397 27.986 242.93 25.8087 244.157 23.662C245.414 21.4847 246.227 19.5833 246.595 17.958C242.67 19.798 238.928 21.9447 235.371 24.398C233.96 27.7713 232.764 31.0527 231.783 34.242L226.309 30.7C227.352 27.1733 228.977 23.202 231.185 18.786C233.178 14.83 235.264 11.4873 237.441 8.758L242.087 12.116C241.014 13.5573 239.986 15.1827 239.005 16.992ZM271.477 30.102C269.054 32.0033 266.264 33.3833 263.105 34.242L257.401 28.952C257.401 26.5293 257.769 24.1527 258.505 21.822C259.241 19.4913 260.33 17.3907 261.771 15.52C263.212 13.6493 264.991 12.1007 267.107 10.874C269.254 9.61667 271.722 8.86533 274.513 8.62L277.549 13.266C277.917 12.6833 278.699 11.6713 279.895 10.23L284.403 14.094C281.367 18.05 278.852 22.282 276.859 26.79L276.721 26.882C278.5 26.422 280.585 25.64 282.977 24.536C285.369 23.4013 286.887 22.6653 287.531 22.328L288.543 26.974C286.734 28.2927 283.728 29.9947 279.527 32.08C277.871 32.908 276.368 33.5673 275.019 34.058L271.477 30.102ZM263.841 27.618C267.122 26.7287 270.112 24.5513 272.811 21.086C273.608 19.338 274.206 17.1607 274.605 14.554C271.446 14.8607 268.855 16.256 266.831 18.74C264.838 21.1933 263.841 24.1527 263.841 27.618ZM310.357 17.406C312.841 15.4127 315.601 13.6033 318.637 11.978L324.203 16.348C323.221 20.4267 321.596 23.938 319.327 26.882C322.301 25.87 325.767 24.352 329.723 22.328L330.689 26.974C329.431 27.802 327.515 28.86 324.939 30.148C320.523 32.3253 317.471 33.69 315.785 34.242L310.081 30.194C313.883 25.6247 316.122 21.914 316.797 19.062C313.577 20.626 310.541 22.4353 307.689 24.49C306.186 27.8633 304.331 31.114 302.123 34.242L296.833 30.608C298.305 28.6453 299.547 26.744 300.559 24.904C302.184 21.8987 303.181 19.5373 303.549 17.82C300.605 19.2 297.891 20.764 295.407 22.512C294.548 23.0947 293.643 23.7233 292.693 24.398C291.313 27.6487 290.101 30.93 289.059 34.242L283.585 30.7C284.627 27.1733 286.253 23.202 288.461 18.786C290.454 14.83 292.539 11.4873 294.717 8.758L299.363 12.116C298.259 13.6187 297.277 15.1673 296.419 16.762C299.209 14.462 302.199 12.4533 305.389 10.736L310.955 15.106L310.357 17.406ZM338.738 24.122C337.297 24.122 336.162 24.0147 335.334 23.8C334.844 24.996 334.537 26.4833 334.414 28.262C339.689 27.9553 344.78 26.7747 349.686 24.72C351.342 24.0453 352.937 23.248 354.47 22.328L355.436 26.974C352.584 28.7833 349.211 30.378 345.316 31.758C341.176 33.23 337.266 34.058 333.586 34.242L327.882 28.952C327.882 24.72 329.032 20.856 331.332 17.36C332.988 14.9373 334.859 13.0207 336.944 11.61C339.06 10.1993 341.084 9.18733 343.016 8.574L350.79 15.014C350.024 18.2033 348.567 20.5187 346.42 21.96C344.274 23.4013 341.713 24.122 338.738 24.122ZM337.266 19.66C339.045 19.66 340.594 19.1693 341.912 18.188C343.446 17.0227 344.212 15.3973 344.212 13.312C341.115 14.9987 338.8 17.1147 337.266 19.66Z" fill="#333333"/>
</svg>
