<svg width="144" height="24" viewBox="0 0 144 24" fill="none" xmlns="http://www.w3.org/2000/svg">
<path d="M46.94 19.8H48.41C47.5 18.54 46.38 16.3 46.38 13.29C46.38 10.28 47.5 8.04 48.41 6.78H46.94C45.61 8.74 44.98 10.98 44.98 13.29C44.98 15.6 45.61 17.84 46.94 19.8ZM52.5395 17.14C54.4995 17.14 55.8295 15.88 55.8295 14.27C55.8295 12.59 54.2895 12.03 54.2895 12.03V11.96C54.2895 11.96 55.6895 11.4 55.6895 9.86C55.6895 8.32 54.4295 7.06 52.5395 7.06C50.5795 7.06 49.3195 8.32 49.3195 9.86H50.7895C50.7895 9.09 51.4895 8.46 52.5395 8.46C53.5895 8.46 54.2195 9.09 54.2195 9.86C54.2195 10.686 53.5755 11.33 52.4695 11.33H51.8395V12.66H52.4695C53.6595 12.66 54.3595 13.36 54.3595 14.2C54.3595 15.11 53.7295 15.74 52.5395 15.74C51.4195 15.74 50.6495 14.97 50.6495 14.2H49.1795C49.1795 15.81 50.5095 17.14 52.5395 17.14ZM61.1434 17.14C63.2434 17.14 65.0634 15.32 65.0634 12.1C65.0634 8.88 63.2434 7.06 61.1434 7.06C59.0434 7.06 57.2234 8.88 57.2234 12.1C57.2234 15.32 59.0434 17.14 61.1434 17.14ZM61.1434 15.74C59.8834 15.74 58.6934 14.55 58.6934 12.1C58.6934 9.65 59.8834 8.46 61.1434 8.46C62.4034 8.46 63.5934 9.65 63.5934 12.1C63.5934 14.55 62.4034 15.74 61.1434 15.74ZM69.6156 17.14C71.5756 17.14 72.9056 15.88 72.9056 14.27C72.9056 12.59 71.3656 12.03 71.3656 12.03V11.96C71.3656 11.96 72.7656 11.4 72.7656 9.86C72.7656 8.32 71.5056 7.06 69.6156 7.06C67.6556 7.06 66.3956 8.32 66.3956 9.86H67.8656C67.8656 9.09 68.5656 8.46 69.6156 8.46C70.6656 8.46 71.2956 9.09 71.2956 9.86C71.2956 10.686 70.6516 11.33 69.5456 11.33H68.9156V12.66H69.5456C70.7356 12.66 71.4356 13.36 71.4356 14.2C71.4356 15.11 70.8056 15.74 69.6156 15.74C68.4956 15.74 67.7256 14.97 67.7256 14.2H66.2556C66.2556 15.81 67.5856 17.14 69.6156 17.14ZM73.8796 19.8H75.3496C76.6796 17.84 77.3096 15.6 77.3096 13.29C77.3096 10.98 76.6796 8.74 75.3496 6.78H73.8796C74.7896 8.04 75.9096 10.28 75.9096 13.29C75.9096 16.3 74.7896 18.54 73.8796 19.8ZM85.574 17.14C87.604 17.14 89.004 15.74 89.004 13.78C89.004 11.89 87.604 10.49 85.784 10.49C85.014 10.49 84.454 10.7 84.034 10.98H83.964L84.244 8.6H88.444V7.2H82.984L82.424 12.59H83.964C84.244 12.24 84.804 11.89 85.574 11.89C86.764 11.89 87.534 12.66 87.534 13.78C87.534 14.97 86.764 15.74 85.574 15.74C84.454 15.74 83.824 15.04 83.684 14.34H82.214C82.354 15.53 83.264 17.14 85.574 17.14ZM93.6267 17.14C95.6567 17.14 97.0567 15.74 97.0567 13.78C97.0567 11.89 95.6567 10.49 93.8367 10.49C93.0667 10.49 92.5067 10.7 92.0867 10.98H92.0167L92.2967 8.6H96.4967V7.2H91.0367L90.4767 12.59H92.0167C92.2967 12.24 92.8567 11.89 93.6267 11.89C94.8167 11.89 95.5867 12.66 95.5867 13.78C95.5867 14.97 94.8167 15.74 93.6267 15.74C92.5067 15.74 91.8767 15.04 91.7367 14.34H90.2667C90.4067 15.53 91.3167 17.14 93.6267 17.14ZM101.679 17.14C103.709 17.14 105.109 15.74 105.109 13.78C105.109 11.89 103.709 10.49 101.889 10.49C101.119 10.49 100.559 10.7 100.139 10.98H100.069L100.349 8.6H104.549V7.2H99.0895L98.5295 12.59H100.069C100.349 12.24 100.909 11.89 101.679 11.89C102.869 11.89 103.639 12.66 103.639 13.78C103.639 14.97 102.869 15.74 101.679 15.74C100.559 15.74 99.9295 15.04 99.7895 14.34H98.3195C98.4595 15.53 99.3695 17.14 101.679 17.14ZM106.372 13.64H110.992V12.38H106.372V13.64ZM116.241 17.14C118.341 17.14 120.161 15.32 120.161 12.1C120.161 8.88 118.341 7.06 116.241 7.06C114.141 7.06 112.321 8.88 112.321 12.1C112.321 15.32 114.141 17.14 116.241 17.14ZM116.241 15.74C114.981 15.74 113.791 14.55 113.791 12.1C113.791 9.65 114.981 8.46 116.241 8.46C117.501 8.46 118.691 9.65 118.691 12.1C118.691 14.55 117.501 15.74 116.241 15.74ZM123.243 17H124.713V7.2H123.243V7.83C123.243 8.11 123.103 8.25 122.823 8.25H121.213V9.65H123.243V17ZM130.378 17.14C132.478 17.14 134.298 15.32 134.298 12.1C134.298 8.88 132.478 7.06 130.378 7.06C128.278 7.06 126.458 8.88 126.458 12.1C126.458 15.32 128.278 17.14 130.378 17.14ZM130.378 15.74C129.118 15.74 127.928 14.55 127.928 12.1C127.928 9.65 129.118 8.46 130.378 8.46C131.638 8.46 132.828 9.65 132.828 12.1C132.828 14.55 131.638 15.74 130.378 15.74ZM138.99 17.14C141.02 17.14 142.42 15.74 142.42 13.78C142.42 11.89 141.02 10.49 139.2 10.49C138.43 10.49 137.87 10.7 137.45 10.98H137.38L137.66 8.6H141.86V7.2H136.4L135.84 12.59H137.38C137.66 12.24 138.22 11.89 138.99 11.89C140.18 11.89 140.95 12.66 140.95 13.78C140.95 14.97 140.18 15.74 138.99 15.74C137.87 15.74 137.24 15.04 137.1 14.34H135.63C135.77 15.53 136.68 17.14 138.99 17.14Z" fill="white"/>
<path d="M19.23 15.26L16.69 14.97C16.3913 14.9349 16.0886 14.968 15.8045 15.0667C15.5205 15.1654 15.2625 15.3273 15.05 15.54L13.21 17.38C10.3712 15.9362 8.06376 13.6288 6.61998 10.79L8.46998 8.94001C8.89998 8.51001 9.10998 7.91001 9.03998 7.30001L8.74998 4.78001C8.69329 4.29219 8.45917 3.84225 8.09222 3.51586C7.72526 3.18947 7.25109 3.00943 6.75998 3.01001H5.02998C3.89998 3.01001 2.95998 3.95001 3.02998 5.08001C3.55998 13.62 10.39 20.44 18.92 20.97C20.05 21.04 20.99 20.1 20.99 18.97V17.24C21 16.23 20.24 15.38 19.23 15.26Z" fill="white"/>
</svg>
