<svg width="147" height="24" viewBox="0 0 147 24" fill="none" xmlns="http://www.w3.org/2000/svg">
<path d="M47.01 17H48.48V15.74H47.29C47.01 15.74 46.87 15.6 46.87 15.32V11.33H48.48V10H46.87V8.04H45.47V10H44.35V11.33H45.47V15.53C45.47 16.44 46.03 17 47.01 17ZM52.8998 17.14C54.7198 17.14 55.6998 15.88 56.0498 14.97H54.5798C54.3698 15.46 53.7398 15.95 52.8998 15.95C51.7798 15.95 50.9398 15.18 50.7998 13.99H56.1898C56.1898 13.99 56.2598 13.71 56.2598 13.29C56.2598 11.33 54.7898 9.86 52.8998 9.86C50.8698 9.86 49.3998 11.33 49.3998 13.5C49.3998 15.67 50.8698 17.14 52.8998 17.14ZM50.7998 12.94C51.0098 11.82 51.7098 11.05 52.8998 11.05C54.0198 11.05 54.7898 11.82 54.9298 12.94H50.7998ZM60.2542 17.14C62.2142 17.14 63.1242 16.16 63.1242 15.04C63.1242 13.85 62.4242 13.164 61.0942 12.94L59.8342 12.73C59.2042 12.604 58.7842 12.31 58.7842 11.89C58.7842 11.47 59.2042 11.05 60.1842 11.05C61.2342 11.05 61.6542 11.61 61.6542 12.03H63.0542C63.0542 11.26 62.2142 9.86 60.1842 9.86C58.2942 9.86 57.3842 10.77 57.3842 11.89C57.3842 13.08 58.0842 13.696 59.4142 13.92L60.6742 14.13C61.4442 14.256 61.7242 14.55 61.7242 15.04C61.7242 15.46 61.3042 15.95 60.2542 15.95C59.1342 15.95 58.6442 15.32 58.6442 14.9H57.2442C57.2442 15.67 58.0142 17.14 60.2542 17.14ZM66.3557 17H67.8257V15.74H66.6357C66.3557 15.74 66.2157 15.6 66.2157 15.32V11.33H67.8257V10H66.2157V8.04H64.8157V10H63.6957V11.33H64.8157V15.53C64.8157 16.44 65.3757 17 66.3557 17ZM74.969 18.4H77.839V17.21H74.969C72.379 17.21 70.489 15.39 70.489 12.94C70.489 10.42 72.449 8.53 75.039 8.53C77.797 8.53 79.659 10.322 79.659 12.73C79.659 14.13 79.099 14.69 78.399 14.69C77.979 14.69 77.699 14.41 77.699 13.92V10.21H76.649L76.509 10.77H76.439C76.439 10.77 75.837 10.14 74.759 10.14C73.149 10.14 71.959 11.33 71.959 13.01C71.959 14.69 73.149 15.88 74.759 15.88C76.019 15.88 76.719 15.04 76.719 15.04H76.789C76.789 15.04 77.209 15.88 78.399 15.88C79.939 15.88 80.919 14.9 80.919 12.73C80.919 9.706 78.539 7.34 75.039 7.34C71.679 7.34 69.229 9.65 69.229 12.94C69.229 16.09 71.539 18.4 74.969 18.4ZM74.829 14.76C73.919 14.76 73.219 14.06 73.219 13.01C73.219 11.96 73.919 11.26 74.829 11.26C75.739 11.26 76.439 11.96 76.439 13.01C76.439 14.06 75.739 14.76 74.829 14.76ZM85.533 19.94C87.633 19.94 88.823 18.68 88.823 16.86V10H87.563L87.423 10.77H87.353C87.143 10.49 86.513 9.86 85.183 9.86C83.433 9.86 82.103 11.19 82.103 13.22C82.103 15.25 83.433 16.58 85.183 16.58C86.513 16.58 87.003 16.09 87.353 15.74H87.423V16.86C87.423 17.91 86.653 18.68 85.533 18.68C84.413 18.68 83.783 18.05 83.713 17.42H82.313C82.383 18.4 83.223 19.94 85.533 19.94ZM85.463 15.32C84.343 15.32 83.503 14.48 83.503 13.22C83.503 11.96 84.343 11.12 85.463 11.12C86.583 11.12 87.423 11.96 87.423 13.22C87.423 14.48 86.583 15.32 85.463 15.32ZM90.6424 17H92.0424V12.59C92.0424 11.75 92.7424 11.12 93.5824 11.12C94.4224 11.12 94.9824 11.68 94.9824 12.59V17H96.3824V12.59C96.3824 11.75 97.0824 11.12 97.9224 11.12C98.7624 11.12 99.3224 11.68 99.3224 12.59V17H100.722V12.576C100.722 10.98 99.6724 9.86 98.2024 9.86C96.5924 9.86 95.8924 10.84 95.8924 10.84H95.8224C95.8224 10.84 95.3324 9.86 93.9324 9.86C92.8124 9.86 92.1124 10.7 92.1124 10.7H92.0424L91.9024 10H90.6424V17ZM104.709 17.14C106.179 17.14 106.809 16.23 106.809 16.23H106.879L107.019 17H108.209V12.52C108.209 10.91 107.159 9.86 105.339 9.86C103.589 9.86 102.539 10.84 102.469 12.03H103.869C103.939 11.61 104.359 11.05 105.339 11.05C106.249 11.05 106.809 11.61 106.809 12.52V12.66H105.059C103.099 12.66 102.189 13.57 102.189 14.97C102.189 16.23 103.169 17.14 104.709 17.14ZM104.849 15.95C104.009 15.95 103.589 15.53 103.589 14.9C103.589 14.27 104.079 13.78 105.129 13.78H106.809V14.06C106.809 15.25 106.109 15.95 104.849 15.95ZM109.961 17H111.361V10H109.961V17ZM109.891 8.67H111.431V7.2H109.891V8.67ZM113.257 17H114.657V7.2H113.257V17ZM116.481 17H118.091V15.39H116.481V17ZM122.996 17.14C125.096 17.14 126.006 15.6 126.216 14.55H124.816C124.676 15.11 124.116 15.88 122.996 15.88C121.806 15.88 120.896 14.97 120.896 13.5C120.896 12.03 121.806 11.12 122.996 11.12C124.046 11.12 124.606 11.75 124.816 12.38H126.216C126.006 11.4 125.096 9.86 122.996 9.86C120.966 9.86 119.496 11.33 119.496 13.5C119.496 15.67 120.966 17.14 122.996 17.14ZM130.761 17.14C132.791 17.14 134.261 15.67 134.261 13.5C134.261 11.33 132.791 9.86 130.761 9.86C128.731 9.86 127.261 11.33 127.261 13.5C127.261 15.67 128.731 17.14 130.761 17.14ZM130.761 15.88C129.571 15.88 128.661 14.97 128.661 13.5C128.661 12.03 129.571 11.12 130.761 11.12C131.951 11.12 132.861 12.03 132.861 13.5C132.861 14.97 131.951 15.88 130.761 15.88ZM135.732 17H137.132V12.59C137.132 11.75 137.832 11.12 138.672 11.12C139.512 11.12 140.072 11.68 140.072 12.59V17H141.472V12.59C141.472 11.75 142.172 11.12 143.012 11.12C143.852 11.12 144.412 11.68 144.412 12.59V17H145.812V12.576C145.812 10.98 144.762 9.86 143.292 9.86C141.682 9.86 140.982 10.84 140.982 10.84H140.912C140.912 10.84 140.422 9.86 139.022 9.86C137.902 9.86 137.202 10.7 137.202 10.7H137.132L136.992 10H135.732V17Z" fill="white"/>
<path d="M20 4H4C2.9 4 2 4.9 2 6V18C2 19.1 2.9 20 4 20H20C21.1 20 22 19.1 22 18V6C22 4.9 21.1 4 20 4ZM19.6 8.25L13.06 12.34C12.41 12.75 11.59 12.75 10.94 12.34L4.4 8.25C4.29973 8.19371 4.21192 8.11766 4.14189 8.02645C4.07186 7.93525 4.02106 7.83078 3.99258 7.71937C3.96409 7.60796 3.9585 7.49194 3.97616 7.37831C3.99381 7.26468 4.03434 7.15581 4.09528 7.0583C4.15623 6.96079 4.23632 6.87666 4.33073 6.811C4.42513 6.74533 4.53187 6.69951 4.6445 6.6763C4.75712 6.65309 4.87328 6.65297 4.98595 6.67595C5.09863 6.69893 5.20546 6.74453 5.3 6.81L12 11L18.7 6.81C18.7945 6.74453 18.9014 6.69893 19.014 6.67595C19.1267 6.65297 19.2429 6.65309 19.3555 6.6763C19.4681 6.69951 19.5749 6.74533 19.6693 6.811C19.7637 6.87666 19.8438 6.96079 19.9047 7.0583C19.9657 7.15581 20.0062 7.26468 20.0238 7.37831C20.0415 7.49194 20.0359 7.60796 20.0074 7.71937C19.9789 7.83078 19.9281 7.93525 19.8581 8.02645C19.7881 8.11766 19.7003 8.19371 19.6 8.25Z" fill="white"/>
</svg>
