<svg width="314" height="24" viewBox="0 0 314 24" fill="none" xmlns="http://www.w3.org/2000/svg">
<path d="M44.7 17H51.14V15.6H46.87V15.53L49.6 12.8C50.3 12.1 51 11.33 51 10.14C51 8.32 49.74 7.06 47.85 7.06C45.96 7.06 44.63 8.39 44.63 10.35H46.1C46.1 9.23 46.87 8.46 47.85 8.46C48.83 8.46 49.46 9.09 49.46 10.14C49.46 10.84 49.222 11.19 48.732 11.68L44.7 15.74V17ZM52.8694 17H54.4934L57.9934 8.46V7.2H51.6234V8.6H56.3134L52.8694 17ZM60.7902 17H62.2602V7.2H60.7902V7.83C60.7902 8.11 60.6502 8.25 60.3702 8.25H58.7602V9.65H60.7902V17ZM67.2947 17.14C69.3247 17.14 70.7247 15.74 70.7247 13.78C70.7247 11.89 69.3247 10.49 67.5047 10.49C66.7347 10.49 66.1747 10.7 65.7547 10.98H65.6847L65.9647 8.6H70.1647V7.2H64.7047L64.1447 12.59H65.6847C65.9647 12.24 66.5247 11.89 67.2947 11.89C68.4847 11.89 69.2547 12.66 69.2547 13.78C69.2547 14.97 68.4847 15.74 67.2947 15.74C66.1747 15.74 65.5447 15.04 65.4047 14.34H63.9347C64.0747 15.53 64.9847 17.14 67.2947 17.14ZM74.6523 17H76.2623L77.1023 14.69H81.5823L82.4223 17H84.0323L80.4623 7.2H78.2223L74.6523 17ZM77.5923 13.36L79.2023 8.88H79.4823L81.0923 13.36H77.5923ZM87.4613 17.14C89.4213 17.14 90.3313 16.16 90.3313 15.04C90.3313 13.85 89.6313 13.164 88.3013 12.94L87.0413 12.73C86.4113 12.604 85.9913 12.31 85.9913 11.89C85.9913 11.47 86.4113 11.05 87.3913 11.05C88.4413 11.05 88.8613 11.61 88.8613 12.03H90.2613C90.2613 11.26 89.4213 9.86 87.3913 9.86C85.5013 9.86 84.5913 10.77 84.5913 11.89C84.5913 13.08 85.2913 13.696 86.6213 13.92L87.8813 14.13C88.6513 14.256 88.9313 14.55 88.9313 15.04C88.9313 15.46 88.5113 15.95 87.4613 15.95C86.3413 15.95 85.8513 15.32 85.8513 14.9H84.4513C84.4513 15.67 85.2213 17.14 87.4613 17.14ZM91.8062 17H93.2062V12.8C93.2062 11.89 93.9762 11.12 95.0262 11.12C96.0062 11.12 96.7062 11.89 96.7062 12.8V17H98.1062V12.8C98.1062 10.98 96.9862 9.86 95.3062 9.86C93.9762 9.86 93.2762 10.7 93.2762 10.7H93.2062V7.2H91.8062V17ZM103.292 17H106.722C109.382 17 111.412 14.97 111.412 12.1C111.412 9.23 109.382 7.2 106.722 7.2H103.292V17ZM104.762 15.6V8.6H106.722C108.542 8.6 109.942 10 109.942 12.1C109.942 14.2 108.542 15.6 106.722 15.6H104.762ZM112.955 17H114.355V12.716C114.355 11.75 114.845 11.26 115.825 11.26H116.945V10H115.685C114.845 10 114.565 10.35 114.355 10.63H114.285L114.145 10H112.955V17ZM117.656 17H119.266V15.39H117.656V17ZM127.816 17.14C130.266 17.14 131.526 15.88 131.526 14.27C131.526 12.73 130.616 11.89 128.656 11.54L127.116 11.26C126.066 11.064 125.646 10.56 125.646 9.93C125.646 9.16 126.346 8.46 127.676 8.46C129.076 8.46 129.916 9.3 129.916 10.21H131.386C131.386 8.46 130.126 7.06 127.676 7.06C125.506 7.06 124.176 8.32 124.176 9.93C124.176 11.26 124.946 12.24 126.486 12.52L128.376 12.87C129.496 13.08 130.056 13.57 130.056 14.27C130.056 15.11 129.426 15.74 127.816 15.74C126.346 15.74 125.436 14.9 125.436 13.99H123.966C123.966 15.74 125.366 17.14 127.816 17.14ZM135.306 17.14C136.776 17.14 137.406 16.23 137.406 16.23H137.476L137.616 17H138.806V12.52C138.806 10.91 137.756 9.86 135.936 9.86C134.186 9.86 133.136 10.84 133.066 12.03H134.466C134.536 11.61 134.956 11.05 135.936 11.05C136.846 11.05 137.406 11.61 137.406 12.52V12.66H135.656C133.696 12.66 132.786 13.57 132.786 14.97C132.786 16.23 133.766 17.14 135.306 17.14ZM135.446 15.95C134.606 15.95 134.186 15.53 134.186 14.9C134.186 14.27 134.676 13.78 135.726 13.78H137.406V14.06C137.406 15.25 136.706 15.95 135.446 15.95ZM140.558 17H141.958V12.8C141.958 11.89 142.728 11.12 143.778 11.12C144.758 11.12 145.458 11.89 145.458 12.8V17H146.858V12.8C146.858 10.98 145.738 9.86 144.058 9.86C142.728 9.86 142.028 10.7 142.028 10.7H141.958L141.818 10H140.558V17ZM151.136 17H153.726C155.056 17 155.546 16.3 155.546 15.18V7.2H154.076V14.9C154.076 15.32 153.796 15.6 153.432 15.6H151.136V17ZM160.58 17.14C162.61 17.14 164.08 15.67 164.08 13.5C164.08 11.33 162.61 9.86 160.58 9.86C158.55 9.86 157.08 11.33 157.08 13.5C157.08 15.67 158.55 17.14 160.58 17.14ZM160.58 15.88C159.39 15.88 158.48 14.97 158.48 13.5C158.48 12.03 159.39 11.12 160.58 11.12C161.77 11.12 162.68 12.03 162.68 13.5C162.68 14.97 161.77 15.88 160.58 15.88ZM168.071 17.14C170.031 17.14 170.941 16.16 170.941 15.04C170.941 13.85 170.241 13.164 168.911 12.94L167.651 12.73C167.021 12.604 166.601 12.31 166.601 11.89C166.601 11.47 167.021 11.05 168.001 11.05C169.051 11.05 169.471 11.61 169.471 12.03H170.871C170.871 11.26 170.031 9.86 168.001 9.86C166.111 9.86 165.201 10.77 165.201 11.89C165.201 13.08 165.901 13.696 167.231 13.92L168.491 14.13C169.261 14.256 169.541 14.55 169.541 15.04C169.541 15.46 169.121 15.95 168.071 15.95C166.951 15.95 166.461 15.32 166.461 14.9H165.061C165.061 15.67 165.831 17.14 168.071 17.14ZM175.496 17.14C177.316 17.14 178.296 15.88 178.646 14.97H177.176C176.966 15.46 176.336 15.95 175.496 15.95C174.376 15.95 173.536 15.18 173.396 13.99H178.786C178.786 13.99 178.856 13.71 178.856 13.29C178.856 11.33 177.386 9.86 175.496 9.86C173.466 9.86 171.996 11.33 171.996 13.5C171.996 15.67 173.466 17.14 175.496 17.14ZM173.396 12.94C173.606 11.82 174.306 11.05 175.496 11.05C176.616 11.05 177.386 11.82 177.526 12.94H173.396ZM180.05 18.19H181.17L181.94 15.39H180.33L180.05 18.19ZM190.42 17.14C192.87 17.14 194.13 15.88 194.13 14.27C194.13 12.73 193.22 11.89 191.26 11.54L189.72 11.26C188.67 11.064 188.25 10.56 188.25 9.93C188.25 9.16 188.95 8.46 190.28 8.46C191.68 8.46 192.52 9.3 192.52 10.21H193.99C193.99 8.46 192.73 7.06 190.28 7.06C188.11 7.06 186.78 8.32 186.78 9.93C186.78 11.26 187.55 12.24 189.09 12.52L190.98 12.87C192.1 13.08 192.66 13.57 192.66 14.27C192.66 15.11 192.03 15.74 190.42 15.74C188.95 15.74 188.04 14.9 188.04 13.99H186.57C186.57 15.74 187.97 17.14 190.42 17.14ZM198.82 17.14C200.85 17.14 202.32 15.67 202.32 13.5C202.32 11.33 200.85 9.86 198.82 9.86C196.79 9.86 195.32 11.33 195.32 13.5C195.32 15.67 196.79 17.14 198.82 17.14ZM198.82 15.88C197.63 15.88 196.72 14.97 196.72 13.5C196.72 12.03 197.63 11.12 198.82 11.12C200.01 11.12 200.92 12.03 200.92 13.5C200.92 14.97 200.01 15.88 198.82 15.88ZM206.591 17.14C207.921 17.14 208.621 16.3 208.621 16.3H208.691L208.831 17H210.091V10H208.691V14.2C208.691 15.11 207.921 15.88 206.871 15.88C205.891 15.88 205.191 15.11 205.191 14.2V10H203.791V14.2C203.791 16.02 204.911 17.14 206.591 17.14ZM214.012 17H215.482V15.74H214.292C214.012 15.74 213.872 15.6 213.872 15.32V11.33H215.482V10H213.872V8.04H212.472V10H211.352V11.33H212.472V15.53C212.472 16.44 213.032 17 214.012 17ZM217.095 17H218.495V12.8C218.495 11.89 219.265 11.12 220.315 11.12C221.295 11.12 221.995 11.89 221.995 12.8V17H223.395V12.8C223.395 10.98 222.275 9.86 220.595 9.86C219.265 9.86 218.565 10.7 218.565 10.7H218.495V7.2H217.095V17ZM228.581 17H232.011C234.671 17 236.701 14.97 236.701 12.1C236.701 9.23 234.671 7.2 232.011 7.2H228.581V17ZM230.051 15.6V8.6H232.011C233.831 8.6 235.231 10 235.231 12.1C235.231 14.2 233.831 15.6 232.011 15.6H230.051ZM240.484 17.14C241.954 17.14 242.584 16.23 242.584 16.23H242.654L242.794 17H243.984V12.52C243.984 10.91 242.934 9.86 241.114 9.86C239.364 9.86 238.314 10.84 238.244 12.03H239.644C239.714 11.61 240.134 11.05 241.114 11.05C242.024 11.05 242.584 11.61 242.584 12.52V12.66H240.834C238.874 12.66 237.964 13.57 237.964 14.97C237.964 16.23 238.944 17.14 240.484 17.14ZM240.624 15.95C239.784 15.95 239.364 15.53 239.364 14.9C239.364 14.27 239.854 13.78 240.904 13.78H242.584V14.06C242.584 15.25 241.884 15.95 240.624 15.95ZM245.806 17H247.206V13.64L250.286 17H251.966L248.676 13.43L251.826 10H250.146L247.206 13.22V7.2H245.806V17ZM255.681 17.14C257.711 17.14 259.181 15.67 259.181 13.5C259.181 11.33 257.711 9.86 255.681 9.86C253.651 9.86 252.181 11.33 252.181 13.5C252.181 15.67 253.651 17.14 255.681 17.14ZM255.681 15.88C254.491 15.88 253.581 14.97 253.581 13.5C253.581 12.03 254.491 11.12 255.681 11.12C256.871 11.12 257.781 12.03 257.781 13.5C257.781 14.97 256.871 15.88 255.681 15.88ZM262.479 17H263.949V15.74H262.759C262.479 15.74 262.339 15.6 262.339 15.32V11.33H263.949V10H262.339V8.04H260.939V10H259.819V11.33H260.939V15.53C260.939 16.44 261.499 17 262.479 17ZM267.459 17.14C268.929 17.14 269.559 16.23 269.559 16.23H269.629L269.769 17H270.959V12.52C270.959 10.91 269.909 9.86 268.089 9.86C266.339 9.86 265.289 10.84 265.219 12.03H266.619C266.689 11.61 267.109 11.05 268.089 11.05C268.999 11.05 269.559 11.61 269.559 12.52V12.66H267.809C265.849 12.66 264.939 13.57 264.939 14.97C264.939 16.23 265.919 17.14 267.459 17.14ZM267.599 15.95C266.759 15.95 266.339 15.53 266.339 14.9C266.339 14.27 266.829 13.78 267.879 13.78H269.559V14.06C269.559 15.25 268.859 15.95 267.599 15.95ZM279.086 17.14C281.186 17.14 282.446 15.81 282.446 14.27C282.446 12.59 280.976 11.96 280.976 11.96V11.89C280.976 11.89 282.236 11.33 282.236 9.79C282.236 8.32 281.046 7.06 279.086 7.06C277.126 7.06 275.936 8.32 275.936 9.79C275.936 11.33 277.196 11.89 277.196 11.89V11.96C277.196 11.96 275.726 12.59 275.726 14.27C275.726 15.81 276.986 17.14 279.086 17.14ZM279.086 15.81C277.966 15.81 277.196 15.11 277.196 14.2C277.196 13.29 277.966 12.59 279.086 12.59C280.206 12.59 280.976 13.29 280.976 14.2C280.976 15.11 280.206 15.81 279.086 15.81ZM279.086 11.33C278.036 11.33 277.406 10.7 277.406 9.86C277.406 9.02 278.036 8.39 279.086 8.39C280.136 8.39 280.766 9.02 280.766 9.86C280.766 10.7 280.136 11.33 279.086 11.33ZM286.93 17.14C288.89 17.14 290.22 15.88 290.22 14.27C290.22 12.59 288.68 12.03 288.68 12.03V11.96C288.68 11.96 290.08 11.4 290.08 9.86C290.08 8.32 288.82 7.06 286.93 7.06C284.97 7.06 283.71 8.32 283.71 9.86H285.18C285.18 9.09 285.88 8.46 286.93 8.46C287.98 8.46 288.61 9.09 288.61 9.86C288.61 10.686 287.966 11.33 286.86 11.33H286.23V12.66H286.86C288.05 12.66 288.75 13.36 288.75 14.2C288.75 15.11 288.12 15.74 286.93 15.74C285.81 15.74 285.04 14.97 285.04 14.2H283.57C283.57 15.81 284.9 17.14 286.93 17.14ZM295.674 17H297.144V14.9H298.334V13.57H297.144V7.2H294.834L291.124 13.71V14.9H295.674V17ZM292.874 13.57V13.5L295.394 9.02H295.674V13.57H292.874ZM299.784 17H301.408L304.908 8.46V7.2H298.538V8.6H303.228L299.784 17ZM309.314 17.14C311.344 17.14 312.744 15.74 312.744 13.78C312.744 11.89 311.344 10.49 309.524 10.49C308.754 10.49 308.194 10.7 307.774 10.98H307.704L307.984 8.6H312.184V7.2H306.724L306.164 12.59H307.704C307.984 12.24 308.544 11.89 309.314 11.89C310.504 11.89 311.274 12.66 311.274 13.78C311.274 14.97 310.504 15.74 309.314 15.74C308.194 15.74 307.564 15.04 307.424 14.34H305.954C306.094 15.53 307.004 17.14 309.314 17.14Z" fill="white"/>
<path d="M12 2C8.13 2 5 5.13 5 9C5 13.17 9.42 18.92 11.24 21.11C11.64 21.59 12.37 21.59 12.77 21.11C14.58 18.92 19 13.17 19 9C19 5.13 15.87 2 12 2ZM12 11.5C11.337 11.5 10.7011 11.2366 10.2322 10.7678C9.76339 10.2989 9.5 9.66304 9.5 9C9.5 8.33696 9.76339 7.70107 10.2322 7.23223C10.7011 6.76339 11.337 6.5 12 6.5C12.663 6.5 13.2989 6.76339 13.7678 7.23223C14.2366 7.70107 14.5 8.33696 14.5 9C14.5 9.66304 14.2366 10.2989 13.7678 10.7678C13.2989 11.2366 12.663 11.5 12 11.5Z" fill="white"/>
</svg>
