<svg width="470" height="83" viewBox="0 0 470 83" fill="none" xmlns="http://www.w3.org/2000/svg">
<path d="M6.66 26H12.42L17.28 7.1H18L22.86 26H28.62L34.92 0.799998H30.78L25.92 20.6H25.2L19.98 0.799998H15.3L10.08 20.6H9.36L4.5 0.799998H0.36L6.66 26ZM37.8169 26H41.4169V15.2C41.4169 12.86 43.3969 10.88 46.0969 10.88C48.6169 10.88 50.4169 12.86 50.4169 15.2V26H54.0169V15.2C54.0169 10.52 51.1369 7.64 46.8169 7.64C43.3969 7.64 41.5969 9.8 41.5969 9.8H41.4169V0.799998H37.8169V26ZM64.2797 26.36C68.0597 26.36 69.6797 24.02 69.6797 24.02H69.8597L70.2197 26H73.2797V14.48C73.2797 10.34 70.5797 7.64 65.8997 7.64C61.3997 7.64 58.6997 10.16 58.5197 13.22H62.1197C62.2997 12.14 63.3797 10.7 65.8997 10.7C68.2397 10.7 69.6797 12.14 69.6797 14.48V14.84H65.1797C60.1397 14.84 57.7997 17.18 57.7997 20.78C57.7997 24.02 60.3197 26.36 64.2797 26.36ZM64.6397 23.3C62.4797 23.3 61.3997 22.22 61.3997 20.6C61.3997 18.98 62.6597 17.72 65.3597 17.72H69.6797V18.44C69.6797 21.5 67.8797 23.3 64.6397 23.3ZM82.4822 26H86.2622V22.76H83.2022C82.4822 22.76 82.1222 22.4 82.1222 21.68V11.42H86.2622V8H82.1222V2.96H78.5222V8H75.6422V11.42H78.5222V22.22C78.5222 24.56 79.9622 26 82.4822 26ZM98.7033 26H102.303V8H98.7033V26ZM98.5233 4.58H102.483V0.799998H98.5233V4.58ZM113.48 26.36C118.52 26.36 120.86 23.84 120.86 20.96C120.86 17.9 119.06 16.136 115.64 15.56L112.4 15.02C110.78 14.696 109.7 13.94 109.7 12.86C109.7 11.78 110.78 10.7 113.3 10.7C116 10.7 117.08 12.14 117.08 13.22H120.68C120.68 11.24 118.52 7.64 113.3 7.64C108.44 7.64 106.1 9.98 106.1 12.86C106.1 15.92 107.9 17.504 111.32 18.08L114.56 18.62C116.54 18.944 117.26 19.7 117.26 20.96C117.26 22.04 116.18 23.3 113.48 23.3C110.6 23.3 109.34 21.68 109.34 20.6H105.74C105.74 22.58 107.72 26.36 113.48 26.36ZM133.305 26H149.325V22.4H137.085V0.799998H133.305V26ZM159.784 26.36C165.004 26.36 168.784 22.58 168.784 17C168.784 11.42 165.004 7.64 159.784 7.64C154.564 7.64 150.784 11.42 150.784 17C150.784 22.58 154.564 26.36 159.784 26.36ZM159.784 23.12C156.724 23.12 154.384 20.78 154.384 17C154.384 13.22 156.724 10.88 159.784 10.88C162.844 10.88 165.184 13.22 165.184 17C165.184 20.78 162.844 23.12 159.784 23.12ZM172.567 26H176.167V14.984C176.167 12.5 177.427 11.24 179.947 11.24H182.827V8H179.587C177.427 8 176.707 8.9 176.167 9.62H175.987L175.627 8H172.567V26ZM192.936 26.36C197.616 26.36 200.136 23.12 201.036 20.78H197.256C196.716 22.04 195.096 23.3 192.936 23.3C190.056 23.3 187.896 21.32 187.536 18.26H201.396C201.396 18.26 201.576 17.54 201.576 16.46C201.576 11.42 197.796 7.64 192.936 7.64C187.716 7.64 183.936 11.42 183.936 17C183.936 22.58 187.716 26.36 192.936 26.36ZM187.536 15.56C188.076 12.68 189.876 10.7 192.936 10.7C195.816 10.7 197.796 12.68 198.156 15.56H187.536ZM205.367 26H208.967V14.66C208.967 12.5 210.767 10.88 212.927 10.88C215.087 10.88 216.527 12.32 216.527 14.66V26H220.127V14.66C220.127 12.5 221.927 10.88 224.087 10.88C226.247 10.88 227.687 12.32 227.687 14.66V26H231.287V14.624C231.287 10.52 228.587 7.64 224.807 7.64C220.667 7.64 218.867 10.16 218.867 10.16H218.687C218.687 10.16 217.427 7.64 213.827 7.64C210.947 7.64 209.147 9.8 209.147 9.8H208.967L208.607 8H205.367V26ZM244.61 26H248.39V0.799998H244.61V26ZM253.426 33.2H257.026V23.84H257.206C257.746 24.56 259.366 26.36 262.786 26.36C267.466 26.36 271.066 22.76 271.066 17C271.066 11.24 267.466 7.64 262.786 7.64C259.366 7.64 257.746 9.44 257.206 10.16H257.026L256.666 8H253.426V33.2ZM262.246 23.12C259.366 23.12 257.026 20.78 257.026 17C257.026 13.22 259.366 10.88 262.246 10.88C265.126 10.88 267.466 13.22 267.466 17C267.466 20.78 265.126 23.12 262.246 23.12ZM281.316 26.36C286.356 26.36 288.696 23.84 288.696 20.96C288.696 17.9 286.896 16.136 283.476 15.56L280.236 15.02C278.616 14.696 277.536 13.94 277.536 12.86C277.536 11.78 278.616 10.7 281.136 10.7C283.836 10.7 284.916 12.14 284.916 13.22H288.516C288.516 11.24 286.356 7.64 281.136 7.64C276.276 7.64 273.936 9.98 273.936 12.86C273.936 15.92 275.736 17.504 279.156 18.08L282.396 18.62C284.376 18.944 285.096 19.7 285.096 20.96C285.096 22.04 284.016 23.3 281.316 23.3C278.436 23.3 277.176 21.68 277.176 20.6H273.576C273.576 22.58 275.556 26.36 281.316 26.36ZM299.509 26.36C302.929 26.36 304.729 24.2 304.729 24.2H304.909L305.269 26H308.509V8H304.909V18.8C304.909 21.14 302.929 23.12 300.229 23.12C297.709 23.12 295.909 21.14 295.909 18.8V8H292.309V18.8C292.309 23.48 295.189 26.36 299.509 26.36ZM313.192 26H316.792V14.66C316.792 12.5 318.592 10.88 320.752 10.88C322.912 10.88 324.352 12.32 324.352 14.66V26H327.952V14.66C327.952 12.5 329.752 10.88 331.912 10.88C334.072 10.88 335.512 12.32 335.512 14.66V26H339.112V14.624C339.112 10.52 336.412 7.64 332.632 7.64C328.492 7.64 326.692 10.16 326.692 10.16H326.512C326.512 10.16 325.252 7.64 321.652 7.64C318.772 7.64 316.972 9.8 316.972 9.8H316.792L316.432 8H313.192V26Z" fill="#E15252"/>
<path d="M8.225 73H17.86L22.795 53.26H23.735L28.67 73H38.305L46.295 40.1H38.07L33.37 60.075H32.43L27.26 40.1H19.27L14.1 60.075H13.16L8.46 40.1H0.235L8.225 73ZM49.596 73H56.646V59.84C56.646 57.255 58.526 55.375 61.111 55.375C63.696 55.375 65.576 57.255 65.576 59.84V73H72.626V58.43C72.626 52.555 68.631 48.56 62.991 48.56C58.761 48.56 56.881 50.91 56.881 50.91H56.646V40.1H49.596V73ZM85.8025 73.47C90.2675 73.47 92.3825 70.885 92.3825 70.885H92.6175L93.0875 73H99.1975V57.678C99.1975 52.32 95.4375 48.56 88.3875 48.56C81.8075 48.56 78.2825 52.085 77.8125 56.315H84.6275C84.6275 56.315 85.3325 54.2 88.3875 54.2C90.7375 54.2 92.1475 55.61 92.1475 57.725V58.195H86.7425C80.1625 58.195 76.8725 61.485 76.8725 65.95C76.8725 70.18 80.1625 73.47 85.8025 73.47ZM87.2125 68.065C85.0975 68.065 83.9225 66.89 83.9225 65.48C83.9225 64.07 85.0975 62.895 87.6825 62.895H92.1475V63.365C92.1475 66.185 90.2675 68.065 87.2125 68.065ZM112.87 73H118.51V66.42H114.75C113.575 66.42 113.105 65.95 113.105 64.775V55.61H118.51V49.03H113.105V41.51H106.055V49.03H102.295V55.61H106.055V66.42C106.055 70.65 108.405 73 112.87 73ZM136.339 73H143.389V49.03H136.339V73ZM136.339 45.552H143.389V39.442H136.339V45.552ZM158.172 73.47C165.222 73.47 168.747 69.945 168.747 65.95C168.747 61.72 166.162 59.135 160.757 58.43L157.232 57.96C155.117 57.678 154.412 57.02 154.412 56.08C154.412 54.905 155.587 53.965 157.937 53.965C161.227 53.965 161.697 56.08 161.697 56.08H168.512C168.512 56.08 168.042 48.56 157.937 48.56C151.122 48.56 147.597 52.085 147.597 56.08C147.597 60.075 149.947 62.378 155.587 63.13L159.112 63.6C161.227 63.882 161.932 64.54 161.932 65.95C161.932 67.125 160.757 68.3 158.172 68.3C154.177 68.3 154.177 65.48 154.177 65.48H147.362C147.362 65.48 147.362 73.47 158.172 73.47ZM186.103 73H208.428V65.715H193.623V40.1H186.103V73ZM222.295 73.47C229.58 73.47 234.75 68.3 234.75 61.015C234.75 53.73 229.58 48.56 222.295 48.56C215.01 48.56 209.84 53.73 209.84 61.015C209.84 68.3 215.01 73.47 222.295 73.47ZM222.295 66.89C219.24 66.89 216.89 64.54 216.89 61.015C216.89 57.49 219.24 55.14 222.295 55.14C225.35 55.14 227.7 57.49 227.7 61.015C227.7 64.54 225.35 66.89 222.295 66.89ZM239.197 73H246.247V59.84C246.247 57.02 247.657 55.61 250.477 55.61H254.707V49.03H250.242C247.187 49.03 246.012 50.91 246.012 50.91H245.777L245.307 49.03H239.197V73ZM268.607 73.47C277.537 73.47 280.122 65.715 280.122 65.715H273.072C273.072 65.715 271.662 67.83 268.607 67.83C265.552 67.83 263.437 65.715 263.202 62.895H280.592C280.592 62.895 280.827 62.19 280.827 60.545C280.827 53.73 275.657 48.56 268.607 48.56C261.322 48.56 256.152 53.73 256.152 61.015C256.152 68.3 261.322 73.47 268.607 73.47ZM263.202 58.665C263.907 55.61 265.787 53.965 268.607 53.965C271.427 53.965 273.307 55.61 274.012 58.665H263.202ZM285.279 73H292.329V59.37C292.329 56.785 293.739 55.375 295.854 55.375C297.969 55.375 299.379 56.785 299.379 59.37V73H306.429V59.37C306.429 56.785 307.886 55.375 309.954 55.375C312.069 55.375 313.479 56.785 313.479 59.37V73H320.529V58.43C320.529 52.555 316.534 48.56 311.364 48.56C306.664 48.56 304.549 51.85 304.549 51.85H304.314C304.314 51.85 302.434 48.56 297.734 48.56C294.209 48.56 292.094 51.145 292.094 51.145H291.859L291.389 49.03H285.279V73ZM339.083 73H346.603V40.1H339.083V73ZM352.704 82.4H359.754V71.12H359.989C359.989 71.12 361.869 73.47 366.099 73.47C372.444 73.47 377.614 68.3 377.614 61.015C377.614 53.73 372.444 48.56 366.099 48.56C361.399 48.56 359.519 51.38 359.519 51.38H359.284L358.814 49.03H352.704V82.4ZM365.159 66.89C362.104 66.89 359.754 64.54 359.754 61.015C359.754 57.49 362.104 55.14 365.159 55.14C368.214 55.14 370.564 57.49 370.564 61.015C370.564 64.54 368.214 66.89 365.159 66.89ZM391.244 73.47C398.294 73.47 401.819 69.945 401.819 65.95C401.819 61.72 399.234 59.135 393.829 58.43L390.304 57.96C388.189 57.678 387.484 57.02 387.484 56.08C387.484 54.905 388.659 53.965 391.009 53.965C394.299 53.965 394.769 56.08 394.769 56.08H401.584C401.584 56.08 401.114 48.56 391.009 48.56C384.194 48.56 380.669 52.085 380.669 56.08C380.669 60.075 383.019 62.378 388.659 63.13L392.184 63.6C394.299 63.882 395.004 64.54 395.004 65.95C395.004 67.125 393.829 68.3 391.244 68.3C387.249 68.3 387.249 65.48 387.249 65.48H380.434C380.434 65.48 380.434 73.47 391.244 73.47ZM415.673 73.47C420.138 73.47 422.253 70.885 422.253 70.885H422.488L422.958 73H429.068V49.03H422.018V62.19C422.018 64.775 420.138 66.655 417.553 66.655C414.968 66.655 413.088 64.775 413.088 62.19V49.03H406.038V63.6C406.038 69.475 410.033 73.47 415.673 73.47ZM434.724 73H441.774V59.37C441.774 56.785 443.184 55.375 445.299 55.375C447.414 55.375 448.824 56.785 448.824 59.37V73H455.874V59.37C455.874 56.785 457.331 55.375 459.399 55.375C461.514 55.375 462.924 56.785 462.924 59.37V73H469.974V58.43C469.974 52.555 465.979 48.56 460.809 48.56C456.109 48.56 453.994 51.85 453.994 51.85H453.759C453.759 51.85 451.879 48.56 447.179 48.56C443.654 48.56 441.539 51.145 441.539 51.145H441.304L440.834 49.03H434.724V73Z" fill="#333333"/>
</svg>
