<svg width="420" height="61" viewBox="0 0 420 61" fill="none" xmlns="http://www.w3.org/2000/svg">
<g clip-path="url(#clip0_0_986)">
<path d="M88.1825 51.8037L87.8938 51.6548C87.3665 51.3849 86.9316 50.9631 86.645 50.4434C86.3584 49.9238 86.2331 49.3301 86.2853 48.7385C86.4719 46.6018 86.4934 44.4537 86.3496 42.3136C86.3061 41.7269 86.4362 41.1404 86.7235 40.6275C87.0108 40.1146 87.4426 39.6982 87.9648 39.4304L88.3739 39.2219C88.955 38.9262 89.4236 38.4476 89.7078 37.8593C89.9921 37.2711 90.0764 36.6056 89.9478 35.9647C89.7642 35.0511 89.5502 34.1375 89.3061 33.2239C89.1262 32.5404 88.9266 31.8635 88.7187 31.1948C88.5183 30.5648 88.1153 30.0193 87.573 29.6434C87.0306 29.2676 86.3793 29.0827 85.721 29.1177L85.3647 29.1359C84.7735 29.1698 84.1857 29.0256 83.6768 28.7218C83.168 28.418 82.7612 27.9686 82.5089 27.4312C81.5956 25.4746 80.5304 23.593 79.3231 21.804C78.9988 21.3176 78.8245 20.7462 78.8218 20.1611C78.8192 19.5759 78.9884 19.003 79.3083 18.5137L79.5409 18.1562C79.8984 17.6046 80.065 16.9503 80.0149 16.2943C79.9648 15.6383 79.7008 15.0171 79.2637 14.5266C78.176 13.3028 77.0233 12.1387 75.8107 11.0394C75.3228 10.5956 74.7023 10.3262 74.0458 10.2729C73.3894 10.2196 72.7338 10.3855 72.1811 10.7448L71.8676 10.9484C71.3764 11.2719 70.8002 11.4413 70.2126 11.4351C69.625 11.4289 69.0525 11.2474 68.568 10.9136C66.8058 9.69199 64.952 8.6091 63.0231 7.67465C62.5001 7.4156 62.0648 7.0078 61.7714 6.50214C61.478 5.99648 61.3395 5.41535 61.3733 4.83125L61.3931 4.41748C61.4284 3.76016 61.2466 3.1095 60.8759 2.56638C60.5051 2.02326 59.9661 1.61803 59.3424 1.41353C57.7791 0.894166 56.1891 0.459361 54.5794 0.110993C53.9355 -0.0294754 53.2633 0.0481649 52.668 0.331765C52.0728 0.615365 51.5881 1.08892 51.2897 1.67834L51.1098 2.02591C50.8446 2.55066 50.4305 2.98489 49.9196 3.27384C49.4087 3.56278 48.824 3.69351 48.2392 3.64953C46.1412 3.48537 44.0337 3.48261 41.9353 3.64125C41.3516 3.68277 40.7686 3.55034 40.2596 3.26059C39.7507 2.97085 39.3384 2.5367 39.0745 2.01267L38.8848 1.63862C38.5885 1.05135 38.1072 0.578696 37.5156 0.294074C36.924 0.00945169 36.2552 -0.0711991 35.6133 0.0646508C34.8587 0.223537 34.1031 0.402836 33.3464 0.602548L33.1814 0.647235C32.3708 0.867911 31.5723 1.10459 30.7859 1.35726C30.1611 1.56102 29.6208 1.96579 29.2485 2.50887C28.8763 3.05195 28.693 3.70302 28.727 4.36121L28.7484 4.77663C28.7803 5.3637 28.6383 5.94711 28.3403 6.45338C28.0423 6.95965 27.6017 7.36615 27.0739 7.62169C25.2171 8.51215 23.4302 9.54234 21.7285 10.7034C21.2433 11.0318 20.6722 11.2091 20.0869 11.2129C19.5016 11.2168 18.9282 11.047 18.4388 10.7249L18.0924 10.5015C17.541 10.1404 16.8861 9.97236 16.2296 10.0236C15.5731 10.0747 14.9519 10.3423 14.4628 10.7845C13.2066 11.9148 12.0136 13.1138 10.8893 14.376C10.4525 14.8665 10.1883 15.4873 10.1373 16.143C10.0863 16.7987 10.2514 17.4531 10.6072 18.0056L10.8316 18.3515C11.1537 18.8442 11.323 19.4216 11.318 20.0108C11.313 20.6 11.134 21.1745 10.8035 21.6616C9.66697 23.3262 8.65348 25.072 7.7712 26.885C7.51307 27.4094 7.10683 27.8459 6.60311 28.1402C6.09939 28.4345 5.52046 28.5736 4.93849 28.5401L4.50624 28.5169C3.85198 28.483 3.20472 28.6656 2.66401 29.0367C2.1233 29.4078 1.71907 29.9468 1.5135 30.5709C0.974103 32.1955 0.524128 33.8486 0.165611 35.5228C0.0258162 36.1702 0.10322 36.8457 0.385779 37.4444C0.668338 38.043 1.14021 38.5312 1.72797 38.833L2.07938 39.0117C2.60271 39.2782 3.03558 39.6943 3.32334 40.2075C3.6111 40.7206 3.74085 41.3078 3.69619 41.8948C3.54407 43.8815 3.53469 45.8766 3.66814 47.8647C3.70557 48.4476 3.57132 49.0288 3.28209 49.5358C2.99286 50.0428 2.56142 50.4534 2.04144 50.7163L1.63723 50.9232C1.05764 51.2184 0.589861 51.6951 0.30491 52.2812C0.0199602 52.8673 -0.0665989 53.5306 0.0583737 54.1705C0.246451 55.0973 0.463125 56.0219 0.708396 56.9444C0.909671 57.6991 1.12965 58.445 1.36832 59.182C1.60337 59.9237 2.11942 60.543 2.80529 60.9066H10.6254C9.73591 58.9575 9.01184 56.9367 8.46081 54.8656C3.08576 34.6572 15.0996 13.8199 35.2437 8.42771L35.3806 8.39295C55.4835 3.09674 76.167 15.1374 81.5322 35.2977C83.8148 43.8266 83.0448 52.8884 79.3561 60.9066H87.7965C88.0679 60.6076 88.2747 60.2554 88.4036 59.8722C88.9333 58.3133 89.3793 56.7272 89.74 55.1205C89.8841 54.4726 89.8092 53.7951 89.5273 53.1946C89.2453 52.5941 88.7722 52.1048 88.1825 51.8037Z" fill="#EB5757"/>
<path d="M27.1058 60.9231C25.1284 60.9232 23.179 60.4547 21.4163 59.5557C19.6537 58.6567 18.1277 57.3527 16.9627 55.7498C15.7977 54.147 15.0267 52.2906 14.7125 50.3322C14.3983 48.3737 14.5498 46.3684 15.1546 44.4798C15.7594 42.5912 16.8005 40.8726 18.193 39.4642C19.5854 38.0558 21.2899 36.9973 23.1675 36.3751C25.0451 35.7528 27.0426 35.5844 28.9974 35.8835C30.9522 36.1827 32.8088 36.9409 34.4161 38.0964C34.6679 38.2777 34.8376 38.5519 34.8879 38.8587C34.9382 39.1655 34.8649 39.4798 34.6842 39.7324C34.5035 39.985 34.2301 40.1553 33.9243 40.2057C33.6185 40.2561 33.3052 40.1826 33.0534 40.0014C31.077 38.5846 28.6615 37.922 26.2416 38.133C23.8216 38.344 21.5562 39.4147 19.8532 41.1523C18.1501 42.8899 17.1213 45.1802 16.9519 47.6111C16.7825 50.042 17.4836 52.4537 18.9291 54.4121C20.3746 56.3706 22.4694 57.747 24.8366 58.2938C27.2037 58.8405 29.6876 58.5216 31.8412 57.3945C33.9949 56.2673 35.6767 54.406 36.5839 52.1455C37.4912 49.8851 37.5643 47.374 36.7902 45.0642C36.6936 44.7698 36.717 44.4491 36.8553 44.172C36.9936 43.8949 37.2356 43.6839 37.5284 43.5851C37.8212 43.4863 38.141 43.5078 38.4182 43.6447C38.6953 43.7817 38.9071 44.023 39.0075 44.3161C39.6405 46.2104 39.8154 48.2284 39.5179 50.2039C39.2204 52.1793 38.459 54.0554 37.2965 55.6776C36.134 57.2997 34.6037 58.6213 32.8318 59.5333C31.0599 60.4454 29.0973 60.9217 27.1058 60.9231Z" fill="#EB5757"/>
<path d="M61.8096 60.923C59.6893 60.922 57.5985 60.4246 55.7036 59.4702C53.8087 58.5159 52.162 57.1311 50.8945 55.4259C49.627 53.7208 48.7737 51.7424 48.4025 49.6482C48.0313 47.5539 48.1525 45.4017 48.7564 43.3628C48.854 43.0767 49.058 42.8396 49.3257 42.7007C49.5933 42.5618 49.9041 42.5319 50.1933 42.6173C50.4824 42.7027 50.7275 42.8967 50.8775 43.1589C51.0275 43.4211 51.0708 43.7313 50.9985 44.0248C50.2201 46.6247 50.3993 49.4186 51.5032 51.897C52.6071 54.3754 54.5622 56.3733 57.012 57.5261C59.4618 58.679 62.243 58.9101 64.8485 58.1772C67.454 57.4444 69.7101 55.7965 71.2055 53.534C72.7008 51.2716 73.3356 48.5453 72.9943 45.8524C72.6529 43.1595 71.3581 40.6794 69.3459 38.8644C67.3337 37.0494 64.7383 36.0204 62.0329 35.9651C59.3275 35.9098 56.6924 36.8318 54.6082 38.5631C54.3672 38.7348 54.0703 38.8086 53.7772 38.7697C53.4842 38.7308 53.2167 38.5819 53.0285 38.3531C52.8404 38.1244 52.7456 37.8326 52.7632 37.5366C52.7808 37.2405 52.9095 36.9621 53.1234 36.7574C54.8053 35.3565 56.7988 34.3826 58.9352 33.9179C61.0716 33.4532 63.2882 33.5115 65.3974 34.0878C67.5066 34.6641 69.4465 35.7414 71.053 37.2287C72.6595 38.7161 73.8853 40.5696 74.6268 42.6326C75.3684 44.6956 75.6038 46.9074 75.3132 49.081C75.0226 51.2545 74.2145 53.3259 72.9573 55.12C71.7001 56.9141 70.0307 58.3781 68.0903 59.3881C66.15 60.3982 63.9957 60.9247 61.8096 60.923Z" fill="#EB5757"/>
<path d="M29.3662 48.6044C29.1274 48.6044 28.8944 48.5312 28.6984 48.3945C28.5024 48.2578 28.3528 48.0642 28.2696 47.8397C28.1865 47.6152 28.1738 47.3706 28.2332 47.1386C28.2927 46.9067 28.4215 46.6985 28.6023 46.5422L40.009 36.6829L35.2774 35.1553C35.1262 35.1124 34.9852 35.0394 34.8627 34.9407C34.7402 34.8419 34.6389 34.7194 34.5647 34.5805C34.4904 34.4415 34.4449 34.289 34.4307 34.132C34.4165 33.975 34.434 33.8168 34.4821 33.6667C34.5302 33.5167 34.608 33.3779 34.7108 33.2587C34.8135 33.1394 34.9392 33.0422 35.0803 32.9727C35.2213 32.9033 35.3749 32.863 35.5318 32.8544C35.6886 32.8458 35.8457 32.869 35.9934 32.9226L44.6912 35.7362L30.1267 48.328C29.9142 48.5082 29.6444 48.6062 29.3662 48.6044Z" fill="#EB5757"/>
<path d="M59.7223 44.0894C59.6066 44.0892 59.4915 44.072 59.3808 44.0381L43.9007 39.3046L52.9581 30.819C53.1868 30.6191 53.4839 30.5161 53.7869 30.5318C54.0898 30.5474 54.3748 30.6805 54.5817 30.903C54.7887 31.1254 54.9015 31.4198 54.8962 31.7241C54.8909 32.0283 54.768 32.3186 54.5535 32.5337L48.4492 38.2453L60.0539 41.7938C60.3211 41.8757 60.5502 42.0509 60.6998 42.2876C60.8495 42.5243 60.9097 42.8069 60.8696 43.0843C60.8295 43.3616 60.6918 43.6155 60.4814 43.7998C60.271 43.9842 60.0017 44.0869 59.7223 44.0894Z" fill="#EB5757"/>
<path d="M28.5989 34.0332C28.3355 34.033 28.0799 33.9437 27.8734 33.7797C27.6669 33.6156 27.5216 33.3865 27.4611 33.1293C27.4006 32.8721 27.4284 32.602 27.54 32.3626C27.6515 32.1233 27.8404 31.9287 28.0759 31.8104C32.1889 29.7565 42.2279 26.4182 49.6207 25.7529C49.7735 25.7395 49.9275 25.7565 50.0738 25.8028C50.2201 25.8491 50.3559 25.9239 50.4734 26.0229C50.5909 26.1219 50.6879 26.2431 50.7587 26.3796C50.8295 26.5162 50.8728 26.6654 50.8861 26.8187C50.8994 26.9721 50.8825 27.1265 50.8363 27.2733C50.7901 27.4201 50.7156 27.5563 50.6169 27.6742C50.5183 27.7921 50.3974 27.8893 50.2613 27.9603C50.1252 28.0314 49.9765 28.0748 49.8236 28.0882C42.713 28.7287 33.0633 31.9379 29.112 33.9107C28.9527 33.9907 28.7771 34.0326 28.5989 34.0332Z" fill="#EB5757"/>
<path d="M23.2505 31.481C22.9863 31.4806 22.73 31.3903 22.5234 31.2251C22.3169 31.0598 22.1721 30.8293 22.1128 30.571C22.0535 30.3127 22.0831 30.0418 22.1969 29.8026C22.3106 29.5633 22.5017 29.3697 22.7391 29.2533C31.6728 24.8972 42.0583 23.1941 49.197 22.5337C49.3498 22.5196 49.5039 22.5358 49.6506 22.5815C49.7972 22.6271 49.9334 22.7012 50.0514 22.7997C50.1694 22.8981 50.267 23.0189 50.3385 23.1552C50.41 23.2914 50.4541 23.4405 50.4681 23.5938C50.4822 23.7471 50.4661 23.9018 50.4206 24.0488C50.3751 24.1959 50.3012 24.3326 50.2031 24.451C50.1049 24.5694 49.9845 24.6673 49.8487 24.739C49.7129 24.8107 49.5643 24.8549 49.4114 24.869C42.4674 25.5129 32.3789 27.1613 23.757 31.3635C23.5991 31.4402 23.426 31.4803 23.2505 31.481Z" fill="#EB5757"/>
<path d="M61.2152 20.877C60.7348 20.2985 60.1264 19.8405 59.4383 19.5397C58.0838 18.972 56.7574 18.4639 52.6428 18.3266C51.2126 18.2882 49.7817 18.3691 48.3648 18.5682C48.0766 18.6286 47.8218 18.796 47.6513 19.0368C47.4809 19.2777 47.4074 19.5742 47.4456 19.8671C47.4837 20.16 47.6307 20.4276 47.8572 20.6164C48.0836 20.8052 48.3727 20.9012 48.6668 20.8853C50.3968 20.632 52.1507 20.5853 53.8917 20.7463C53.2938 21.4177 52.8937 22.2428 52.7362 23.1291C52.5787 24.0155 52.6699 24.9284 52.9997 25.7658C53.3296 26.6032 53.8849 27.3321 54.6039 27.871C55.3228 28.41 56.1769 28.7379 57.0708 28.818C57.2177 28.8313 57.3645 28.8379 57.5097 28.8379C58.717 28.8353 59.8799 28.3804 60.7702 27.5623C61.6605 26.7442 62.214 25.6219 62.3222 24.4156C62.3798 23.7816 62.3117 23.1425 62.1217 22.5352C61.9317 21.9278 61.6235 21.3642 61.2152 20.877ZM59.9927 24.2136C59.9495 24.6983 59.7667 25.1599 59.4667 25.5422C59.1667 25.9245 58.7623 26.2111 58.3028 26.367C57.8434 26.5229 57.3486 26.5414 56.8789 26.4203C56.4091 26.2992 55.9846 26.0436 55.657 25.6848C55.3294 25.326 55.1129 24.8793 55.0338 24.3992C54.9548 23.9191 55.0166 23.4264 55.2117 22.9809C55.4068 22.5354 55.7268 22.1565 56.1328 21.8902C56.5387 21.6239 57.0131 21.4818 57.4981 21.4811C57.5724 21.4811 57.6483 21.4811 57.7242 21.4911C58.3845 21.5512 58.9942 21.8715 59.4194 22.3819C59.8447 22.8923 60.0508 23.551 59.9927 24.2136Z" fill="#EB5757"/>
</g>
<path d="M110 0.450014H125.636C131.885 0.450014 136.8 4.93091 136.8 11.8742C136.8 17.6987 133.448 21.0609 129.43 22.4046L137.248 31.8163H126.079L119.382 22.8545V31.8163H110V0.450014ZM124.957 14.5615C125.624 14.4978 126.243 14.1872 126.693 13.6903C127.144 13.1933 127.393 12.5458 127.393 11.8742C127.393 11.2025 127.144 10.555 126.693 10.0581C126.243 9.56118 125.624 9.25054 124.957 9.18686H119.382V14.5615H124.957Z" fill="#EB5757"/>
<path d="M140.599 16.13C140.599 6.72438 147.266 0 156.005 0C164.744 0 171.417 6.72438 171.417 16.13C171.417 25.5356 164.714 32.26 156.005 32.26C147.296 32.26 140.599 25.5417 140.599 16.13ZM162.035 16.13C162.035 11.8741 159.357 9.18675 155.975 9.18675C152.593 9.18675 149.914 11.8741 149.914 16.13C149.914 20.3859 152.593 23.0793 155.975 23.0793C159.357 23.0793 162.035 20.3859 162.035 16.13Z" fill="#EB5757"/>
<path d="M176.102 18.3736V0.450014H185.483V18.3736C185.483 21.2859 187.271 23.0794 189.726 23.0794C192.18 23.0794 193.968 21.2859 193.968 18.3736V0.450014H203.344V18.3736C203.344 26.8855 197.986 32.2601 189.72 32.2601C181.453 32.2601 176.102 26.8855 176.102 18.3736Z" fill="#EB5757"/>
<path d="M209.156 0.450014H219.653L226.58 14.1177H227.471V0.450014H236.853V31.8163H226.356L219.435 18.1669H218.538V31.8345H209.156V0.450014Z" fill="#EB5757"/>
<path d="M242.883 0.450014H254.938C263.877 0.450014 270.574 7.16832 270.574 16.1301C270.574 25.0919 263.907 31.8163 254.938 31.8163H242.883V0.450014ZM255.162 22.6295C258.513 22.6295 261.222 19.9422 261.222 16.1301C261.222 12.318 258.544 9.63677 255.162 9.63677H252.259V22.6295H255.162Z" fill="#EB5757"/>
<path d="M289.557 0.450014H305.193C311.442 0.450014 316.357 4.93091 316.357 11.8742C316.357 17.6987 313.005 21.0609 308.987 22.4046L316.805 31.8163H305.636L298.939 22.8545V31.8163H289.557V0.450014ZM304.521 14.5615C305.187 14.4978 305.806 14.1872 306.256 13.6903C306.707 13.1933 306.956 12.5458 306.956 11.8742C306.956 11.2025 306.707 10.555 306.256 10.0581C305.806 9.56118 305.187 9.25054 304.521 9.18686H298.939V14.5615H304.521Z" fill="#EB5757"/>
<path d="M320.156 16.13C320.156 6.72438 326.853 0 335.562 0C344.271 0 350.974 6.72438 350.974 16.13C350.974 25.5356 344.271 32.26 335.562 32.26C326.853 32.26 320.156 25.5417 320.156 16.13ZM341.592 16.13C341.592 11.8741 338.914 9.18675 335.562 9.18675C332.211 9.18675 329.532 11.8741 329.532 16.13C329.532 20.3859 332.211 23.0793 335.562 23.0793C338.914 23.0793 341.592 20.3859 341.592 16.13Z" fill="#EB5757"/>
<path d="M354.769 16.13C354.769 6.72438 361.472 0 370.181 0C378.223 0 383.805 5.5996 384.92 13.2177H375.539C375.235 12.0352 374.539 10.9917 373.565 10.259C372.591 9.52631 371.398 9.14814 370.181 9.18676C366.83 9.18676 364.151 11.8741 364.151 16.13C364.151 20.386 366.83 23.0793 370.181 23.0793C373.084 23.0793 374.872 21.2858 375.539 18.8234H384.92C383.805 26.6665 378.223 32.2661 370.181 32.2661C361.472 32.26 354.769 25.5417 354.769 16.13Z" fill="#EB5757"/>
<path d="M389.835 0.450014H399.21V13.2178L405.913 0.450014H416.634L408.15 15.9052L417.531 31.8163H406.804L399.21 18.3736V31.8163H389.835V0.450014Z" fill="#EB5757"/>
<path d="M110 46.0022H115.873C116.392 45.9844 116.91 46.074 117.394 46.2654C117.878 46.4568 118.317 46.7459 118.685 47.1148C119.053 47.4836 119.341 47.9244 119.532 48.4097C119.722 48.8951 119.812 49.4145 119.794 49.9359C119.826 50.5803 119.68 51.2211 119.37 51.7868C119.061 52.3526 118.601 52.821 118.042 53.14V53.2434C118.665 53.5304 119.185 54.0005 119.535 54.5912C119.884 55.182 120.047 55.8654 120 56.5509C120.018 57.072 119.928 57.5912 119.738 58.0762C119.547 58.5612 119.258 59.0016 118.891 59.37C118.523 59.7384 118.083 60.027 117.6 60.2177C117.116 60.4084 116.598 60.4971 116.079 60.4785H110.018L110 46.0022ZM115.873 52.6232C116.236 52.6406 116.598 52.5838 116.939 52.4564C117.279 52.329 117.59 52.1336 117.853 51.8821C118.116 51.6306 118.325 51.3281 118.468 50.9931C118.611 50.658 118.685 50.2973 118.685 49.9329C118.685 49.5684 118.611 49.2077 118.468 48.8727C118.325 48.5376 118.116 48.2352 117.853 47.9837C117.59 47.7321 117.279 47.5368 116.939 47.4094C116.598 47.282 116.236 47.2252 115.873 47.2425H111.236V52.6232H115.873ZM116.079 59.2382C116.434 59.25 116.788 59.1886 117.119 59.0578C117.449 58.927 117.75 58.7296 118.001 58.4777C118.253 58.2259 118.45 57.925 118.581 57.5935C118.713 57.2621 118.775 56.9073 118.764 56.5509C118.792 56.1902 118.742 55.8276 118.617 55.4882C118.492 55.1489 118.295 54.8408 118.04 54.5852C117.784 54.3297 117.477 54.1328 117.138 54.0082C116.8 53.8836 116.438 53.8342 116.079 53.8635H111.23V59.2382H116.079Z" fill="#EB5757"/>
<path d="M135.008 46H136.22V60.4763H135.008V46Z" fill="#EB5757"/>
<path d="M151.22 53.4479C151.22 48.9974 154.208 46 158.02 46C159.452 46.0107 160.841 46.4923 161.974 47.3709C163.107 48.2494 163.921 49.4765 164.292 50.8639H162.953C162.619 49.8091 161.961 48.8877 161.072 48.2321C160.184 47.5766 159.111 47.2208 158.008 47.216C154.917 47.216 152.444 49.6966 152.444 53.4236C152.444 57.1506 154.917 59.6251 158.008 59.6251C159.121 59.6212 160.204 59.257 161.095 58.5867C161.986 57.9164 162.637 56.9756 162.953 55.9042H164.292C163.931 57.3077 163.121 58.5534 161.985 59.4497C160.85 60.3461 159.452 60.8435 158.008 60.8654C154.208 60.8897 151.22 57.8923 151.22 53.4479Z" fill="#EB5757"/>
<path d="M184.65 55.0408L179.292 46H180.674L185.08 53.4479H185.492L189.886 46H191.268L185.905 55.0408V60.4763H184.692L184.65 55.0408Z" fill="#EB5757"/>
<path d="M206.268 53.4479C206.268 48.9974 209.256 46 213.068 46C214.503 46.0068 215.896 46.4865 217.033 47.3653C218.17 48.2442 218.987 49.4735 219.359 50.8639H218.02C217.685 49.8087 217.025 48.887 216.136 48.2315C215.246 47.576 214.172 47.2205 213.068 47.216C209.977 47.216 207.504 49.6966 207.504 53.4236C207.504 57.1506 209.977 59.6251 213.068 59.6251C214.183 59.6225 215.267 59.2589 216.159 58.5885C217.051 57.9181 217.704 56.9766 218.02 55.9042H219.359C218.997 57.3082 218.185 58.554 217.048 59.4503C215.912 60.3466 214.513 60.8438 213.068 60.8654C209.256 60.8897 206.268 57.8923 206.268 53.4479Z" fill="#EB5757"/>
<path d="M234.359 46H235.571V59.2359H242.995V60.4519H234.359V46Z" fill="#EB5757"/>
<path d="M258.013 46H267.104V47.216H259.25V52.5967H266.674V53.8127H259.25V59.1873H267.086V60.4033H257.995L258.013 46Z" fill="#EB5757"/>
<path d="M290 46H295.976C298.448 46 300.218 47.7571 300.218 50.3471C300.218 53.0344 298.364 54.7915 295.976 54.7915H294.533L300.509 60.4763H298.861L292.885 54.7915H291.236V60.4763H290.024L290 46ZM295.976 53.5513C297.727 53.5513 298.964 52.3353 298.964 50.3471C298.992 49.9411 298.935 49.5337 298.796 49.1513C298.657 48.7689 298.44 48.4199 298.159 48.127C297.877 47.8341 297.537 47.6039 297.161 47.4511C296.785 47.2984 296.381 47.2265 295.976 47.2403H291.236V53.5513H295.976Z" fill="#EB5757"/>
<path d="M315.527 46H324.618V47.216H316.764V52.5967H324.188V53.8127H316.764V59.1873H324.6V60.4033H315.509L315.527 46Z" fill="#EB5757"/>
<path d="M339.618 46H345.594C346.168 45.9994 346.736 46.1156 347.263 46.3415C347.791 46.5675 348.268 46.8985 348.664 47.3145C349.061 47.7306 349.369 48.223 349.571 48.762C349.772 49.301 349.863 49.8755 349.836 50.4505C349.871 51.0223 349.785 51.595 349.585 52.1316C349.385 52.6682 349.075 53.1568 348.676 53.5658C348.276 53.9749 347.795 54.2953 347.264 54.5065C346.734 54.7176 346.164 54.8147 345.594 54.7916H340.855V60.4763H339.642L339.618 46ZM345.594 53.5513C345.999 53.5658 346.403 53.4948 346.78 53.3428C347.156 53.1908 347.496 52.9612 347.778 52.6689C348.061 52.3766 348.278 52.0281 348.418 51.646C348.557 51.2638 348.615 50.8565 348.588 50.4505C348.588 48.4806 347.345 47.2403 345.594 47.2403H340.855V53.5513H345.594Z" fill="#EB5757"/>
<path d="M370.28 46H372.135L377.589 60.4763H376.377L374.892 56.5486H367.541L366.056 60.4763H364.844L370.28 46ZM374.407 55.3083L371.413 47.3437H371.001L368.013 55.3083H374.407Z" fill="#EB5757"/>
<path d="M392.589 46H393.801V60.4763H392.589V46Z" fill="#EB5757"/>
<path d="M408.801 46H414.777C417.25 46 419.019 47.7571 419.019 50.3471C419.019 53.0344 417.165 54.7915 414.777 54.7915H413.335L419.31 60.4763H417.686L411.71 54.7915H410.062V60.4763H408.85L408.801 46ZM414.777 53.5513C416.529 53.5513 417.765 52.3353 417.765 50.3471C417.793 49.9411 417.736 49.5337 417.597 49.1513C417.459 48.7689 417.241 48.4199 416.96 48.127C416.678 47.8341 416.338 47.6039 415.962 47.4511C415.586 47.2984 415.182 47.2265 414.777 47.2403H410.038V53.5513H414.777Z" fill="#EB5757"/>
<defs>
<clipPath id="clip0_0_986">
<rect width="90" height="61" fill="white"/>
</clipPath>
</defs>
</svg>
